<mxfile>
    <diagram id="fD2kwGC0DAS2S_q_IsmE" name="Page-1">
        <mxGraphModel dx="1582" dy="1094" grid="1" gridSize="10" guides="1" tooltips="1" connect="1" arrows="1" fold="1" page="1" pageScale="1" pageWidth="1920" pageHeight="1200" math="0" shadow="0">
            <root>
                <mxCell id="0"/>
                <mxCell id="1" parent="0"/>
                <mxCell id="y4MLTYBancT3lkQri0nA-9" style="edgeStyle=orthogonalEdgeStyle;orthogonalLoop=1;jettySize=auto;html=1;exitX=1;exitY=0.5;exitDx=0;exitDy=0;" parent="1" source="y4MLTYBancT3lkQri0nA-1" edge="1">
                    <mxGeometry relative="1" as="geometry">
                        <mxPoint x="620" y="440" as="targetPoint"/>
                    </mxGeometry>
                </mxCell>
                <mxCell id="CDYlmZ7dxupAKddLQDts-15" style="edgeStyle=orthogonalEdgeStyle;orthogonalLoop=1;jettySize=auto;html=1;exitX=0.25;exitY=0;exitDx=0;exitDy=0;entryX=0.5;entryY=0;entryDx=0;entryDy=0;fillColor=#dae8fc;strokeColor=#6c8ebf;" parent="1" source="y4MLTYBancT3lkQri0nA-1" target="y4MLTYBancT3lkQri0nA-2" edge="1">
                    <mxGeometry relative="1" as="geometry">
                        <Array as="points">
                            <mxPoint x="460" y="240"/>
                            <mxPoint x="270" y="240"/>
                        </Array>
                    </mxGeometry>
                </mxCell>
                <mxCell id="34_DfmtK1x9xla_BCLYV-16" value="4" style="edgeStyle=orthogonalEdgeStyle;orthogonalLoop=1;jettySize=auto;html=1;exitX=0.25;exitY=1;exitDx=0;exitDy=0;entryX=1;entryY=0.5;entryDx=0;entryDy=0;" parent="1" source="y4MLTYBancT3lkQri0nA-1" target="34_DfmtK1x9xla_BCLYV-17" edge="1">
                    <mxGeometry x="0.0526" y="10" relative="1" as="geometry">
                        <mxPoint x="459.72413793103465" y="510" as="targetPoint"/>
                        <mxPoint x="-10" y="10" as="offset"/>
                    </mxGeometry>
                </mxCell>
                <mxCell id="y4MLTYBancT3lkQri0nA-1" value="BROADCAST HUB (PLUGIN)" style="whiteSpace=wrap;html=1;fillColor=#dae8fc;strokeColor=#6c8ebf;fontColor=#000000;" parent="1" vertex="1">
                    <mxGeometry x="430" y="410" width="120" height="60" as="geometry"/>
                </mxCell>
                <mxCell id="y4MLTYBancT3lkQri0nA-5" style="edgeStyle=orthogonalEdgeStyle;orthogonalLoop=1;jettySize=auto;html=1;exitX=1;exitY=0.5;exitDx=0;exitDy=0;entryX=0.5;entryY=0;entryDx=0;entryDy=0;" parent="1" source="y4MLTYBancT3lkQri0nA-2" target="y4MLTYBancT3lkQri0nA-1" edge="1">
                    <mxGeometry relative="1" as="geometry"/>
                </mxCell>
                <mxCell id="34_DfmtK1x9xla_BCLYV-19" style="edgeStyle=orthogonalEdgeStyle;orthogonalLoop=1;jettySize=auto;html=1;exitX=0.25;exitY=0;exitDx=0;exitDy=0;entryX=0.5;entryY=1;entryDx=0;entryDy=0;" parent="1" source="y4MLTYBancT3lkQri0nA-2" target="34_DfmtK1x9xla_BCLYV-1" edge="1">
                    <mxGeometry relative="1" as="geometry">
                        <Array as="points">
                            <mxPoint x="240" y="160"/>
                            <mxPoint x="696" y="160"/>
                        </Array>
                    </mxGeometry>
                </mxCell>
                <mxCell id="34_DfmtK1x9xla_BCLYV-22" value="6" style="edgeLabel;html=1;align=center;verticalAlign=middle;resizable=0;points=[];" parent="34_DfmtK1x9xla_BCLYV-19" vertex="1" connectable="0">
                    <mxGeometry x="-0.2172" relative="1" as="geometry">
                        <mxPoint x="108.62" y="-10" as="offset"/>
                    </mxGeometry>
                </mxCell>
                <mxCell id="y4MLTYBancT3lkQri0nA-2" value="WS" style="whiteSpace=wrap;html=1;fillColor=#f5f5f5;strokeColor=#666666;fontColor=#333333;" parent="1" vertex="1">
                    <mxGeometry x="210" y="290" width="120" height="40" as="geometry"/>
                </mxCell>
                <mxCell id="y4MLTYBancT3lkQri0nA-6" style="edgeStyle=orthogonalEdgeStyle;orthogonalLoop=1;jettySize=auto;html=1;exitX=1;exitY=0.5;exitDx=0;exitDy=0;entryX=0;entryY=0.5;entryDx=0;entryDy=0;" parent="1" source="y4MLTYBancT3lkQri0nA-3" target="y4MLTYBancT3lkQri0nA-1" edge="1">
                    <mxGeometry relative="1" as="geometry"/>
                </mxCell>
                <mxCell id="34_DfmtK1x9xla_BCLYV-23" style="edgeStyle=orthogonalEdgeStyle;orthogonalLoop=1;jettySize=auto;html=1;exitX=0;exitY=0.5;exitDx=0;exitDy=0;" parent="1" source="y4MLTYBancT3lkQri0nA-3" edge="1">
                    <mxGeometry relative="1" as="geometry">
                        <mxPoint x="50" y="440.2068965517242" as="targetPoint"/>
                    </mxGeometry>
                </mxCell>
                <mxCell id="y4MLTYBancT3lkQri0nA-3" value="REDIS" style="whiteSpace=wrap;html=1;fillColor=#fff2cc;strokeColor=#d6b656;fontColor=#000000;" parent="1" vertex="1">
                    <mxGeometry x="210" y="420" width="120" height="40" as="geometry"/>
                </mxCell>
                <mxCell id="y4MLTYBancT3lkQri0nA-7" style="edgeStyle=orthogonalEdgeStyle;orthogonalLoop=1;jettySize=auto;html=1;exitX=1;exitY=0.5;exitDx=0;exitDy=0;entryX=0.5;entryY=1;entryDx=0;entryDy=0;" parent="1" source="y4MLTYBancT3lkQri0nA-4" target="y4MLTYBancT3lkQri0nA-1" edge="1">
                    <mxGeometry relative="1" as="geometry"/>
                </mxCell>
                <mxCell id="y4MLTYBancT3lkQri0nA-4" value="IN-MEMORY" style="whiteSpace=wrap;html=1;fillColor=#ffe6cc;strokeColor=#d79b00;fontColor=#000000;" parent="1" vertex="1">
                    <mxGeometry x="210" y="560" width="120" height="40" as="geometry"/>
                </mxCell>
                <mxCell id="y4MLTYBancT3lkQri0nA-8" value="Collects sub-plugins" style="text;html=1;align=center;verticalAlign=middle;resizable=0;points=[];autosize=1;" parent="1" vertex="1">
                    <mxGeometry x="310" y="370" width="120" height="20" as="geometry"/>
                </mxCell>
                <mxCell id="34_DfmtK1x9xla_BCLYV-15" value="3" style="edgeStyle=orthogonalEdgeStyle;orthogonalLoop=1;jettySize=auto;html=1;exitX=0;exitY=0.75;exitDx=0;exitDy=0;entryX=1;entryY=0.75;entryDx=0;entryDy=0;" parent="1" source="y4MLTYBancT3lkQri0nA-10" target="y4MLTYBancT3lkQri0nA-1" edge="1">
                    <mxGeometry x="0.1429" y="15" relative="1" as="geometry">
                        <mxPoint as="offset"/>
                    </mxGeometry>
                </mxCell>
                <mxCell id="y4MLTYBancT3lkQri0nA-10" value="RPC BUS" style="whiteSpace=wrap;html=1;fillColor=#e1d5e7;strokeColor=#9673a6;fontColor=#000000;" parent="1" vertex="1">
                    <mxGeometry x="620" y="410" width="120" height="60" as="geometry"/>
                </mxCell>
                <mxCell id="CDYlmZ7dxupAKddLQDts-6" style="edgeStyle=orthogonalEdgeStyle;orthogonalLoop=1;jettySize=auto;html=1;entryX=0.75;entryY=0;entryDx=0;entryDy=0;fillColor=#dae8fc;strokeColor=#6c8ebf;" parent="1" source="CDYlmZ7dxupAKddLQDts-1" target="y4MLTYBancT3lkQri0nA-1" edge="1">
                    <mxGeometry relative="1" as="geometry"/>
                </mxCell>
                <mxCell id="CDYlmZ7dxupAKddLQDts-8" value="Connect to the GO endpoint (from the config)" style="edgeLabel;html=1;align=center;verticalAlign=middle;resizable=0;points=[];" parent="CDYlmZ7dxupAKddLQDts-6" vertex="1" connectable="0">
                    <mxGeometry x="-0.6679" y="-2" relative="1" as="geometry">
                        <mxPoint x="-33.3" y="-13" as="offset"/>
                    </mxGeometry>
                </mxCell>
                <mxCell id="CDYlmZ7dxupAKddLQDts-1" value="" style="aspect=fixed;html=1;points=[];align=center;image;fontSize=12;image=img/lib/azure2/general/Browser.svg;" parent="1" vertex="1">
                    <mxGeometry x="652.5" y="30" width="87.5" height="70" as="geometry"/>
                </mxCell>
                <mxCell id="34_DfmtK1x9xla_BCLYV-12" style="edgeStyle=orthogonalEdgeStyle;orthogonalLoop=1;jettySize=auto;html=1;exitX=0.5;exitY=0;exitDx=0;exitDy=0;entryX=0.5;entryY=1;entryDx=0;entryDy=0;" parent="1" source="CDYlmZ7dxupAKddLQDts-3" target="y4MLTYBancT3lkQri0nA-10" edge="1">
                    <mxGeometry relative="1" as="geometry"/>
                </mxCell>
                <mxCell id="34_DfmtK1x9xla_BCLYV-20" value="2" style="edgeLabel;html=1;align=center;verticalAlign=middle;resizable=0;points=[];" parent="34_DfmtK1x9xla_BCLYV-12" vertex="1" connectable="0">
                    <mxGeometry x="0.2355" y="-1" relative="1" as="geometry">
                        <mxPoint x="9" y="12.69" as="offset"/>
                    </mxGeometry>
                </mxCell>
                <mxCell id="CDYlmZ7dxupAKddLQDts-3" value="PUBLISH" style="whiteSpace=wrap;html=1;" parent="1" vertex="1">
                    <mxGeometry x="636.25" y="568" width="87.5" height="30" as="geometry"/>
                </mxCell>
                <mxCell id="34_DfmtK1x9xla_BCLYV-11" value="1" style="edgeStyle=orthogonalEdgeStyle;orthogonalLoop=1;jettySize=auto;html=1;exitX=0.5;exitY=0;exitDx=0;exitDy=0;entryX=0.5;entryY=1;entryDx=0;entryDy=0;" parent="1" source="CDYlmZ7dxupAKddLQDts-5" target="CDYlmZ7dxupAKddLQDts-3" edge="1">
                    <mxGeometry x="0.2" y="-10" relative="1" as="geometry">
                        <Array as="points">
                            <mxPoint x="680" y="620"/>
                            <mxPoint x="680" y="620"/>
                        </Array>
                        <mxPoint as="offset"/>
                    </mxGeometry>
                </mxCell>
                <mxCell id="CDYlmZ7dxupAKddLQDts-5" value="PHP" style="whiteSpace=wrap;html=1;" parent="1" vertex="1">
                    <mxGeometry x="620" y="628" width="120" height="30" as="geometry"/>
                </mxCell>
                <mxCell id="CDYlmZ7dxupAKddLQDts-9" value="Save the websocket connection" style="text;html=1;align=center;verticalAlign=middle;resizable=0;points=[];autosize=1;" parent="1" vertex="1">
                    <mxGeometry x="280" y="220" width="180" height="20" as="geometry"/>
                </mxCell>
                <mxCell id="34_DfmtK1x9xla_BCLYV-1" value="BROKER?? -&amp;gt; Subscriber" style="whiteSpace=wrap;html=1;" parent="1" vertex="1">
                    <mxGeometry x="653" y="100" width="87" height="30" as="geometry"/>
                </mxCell>
                <mxCell id="34_DfmtK1x9xla_BCLYV-9" value="&lt;p style=&quot;margin: 0px ; margin-top: 4px ; text-align: center ; text-decoration: underline&quot;&gt;&lt;b&gt;Structure&lt;/b&gt;&lt;/p&gt;&lt;hr&gt;&lt;p style=&quot;margin: 0px ; margin-left: 8px&quot;&gt;Topic = string&lt;br&gt;Payload = raw&lt;br&gt;&lt;/p&gt;&lt;p style=&quot;margin: 0px ; margin-left: 8px&quot;&gt;Broker = ws (from config) (hardcoded)&lt;br&gt;&lt;/p&gt;" style="verticalAlign=top;align=left;overflow=fill;fontSize=12;fontFamily=Helvetica;html=1;" parent="1" vertex="1">
                    <mxGeometry x="780" y="543" width="220" height="80" as="geometry"/>
                </mxCell>
                <mxCell id="34_DfmtK1x9xla_BCLYV-10" value="" style="endArrow=none;html=1;entryX=0;entryY=0.5;entryDx=0;entryDy=0;exitX=1;exitY=0.5;exitDx=0;exitDy=0;" parent="1" source="CDYlmZ7dxupAKddLQDts-3" target="34_DfmtK1x9xla_BCLYV-9" edge="1">
                    <mxGeometry width="50" height="50" relative="1" as="geometry">
                        <mxPoint x="740" y="608" as="sourcePoint"/>
                        <mxPoint x="790" y="558" as="targetPoint"/>
                    </mxGeometry>
                </mxCell>
                <mxCell id="34_DfmtK1x9xla_BCLYV-14" style="edgeStyle=orthogonalEdgeStyle;orthogonalLoop=1;jettySize=auto;html=1;exitX=1;exitY=0.5;exitDx=0;exitDy=0;entryX=0.5;entryY=1;entryDx=0;entryDy=0;" parent="1" source="34_DfmtK1x9xla_BCLYV-13" target="y4MLTYBancT3lkQri0nA-1" edge="1">
                    <mxGeometry relative="1" as="geometry"/>
                </mxCell>
                <mxCell id="34_DfmtK1x9xla_BCLYV-13" value="AMQP" style="whiteSpace=wrap;html=1;fillColor=#ffe6cc;strokeColor=#d79b00;fontColor=#000000;" parent="1" vertex="1">
                    <mxGeometry x="210" y="658" width="120" height="40" as="geometry"/>
                </mxCell>
                <mxCell id="34_DfmtK1x9xla_BCLYV-18" style="edgeStyle=orthogonalEdgeStyle;orthogonalLoop=1;jettySize=auto;html=1;exitX=0;exitY=0.5;exitDx=0;exitDy=0;entryX=0.5;entryY=1;entryDx=0;entryDy=0;" parent="1" source="34_DfmtK1x9xla_BCLYV-17" target="y4MLTYBancT3lkQri0nA-2" edge="1">
                    <mxGeometry relative="1" as="geometry">
                        <Array as="points">
                            <mxPoint x="160" y="520"/>
                            <mxPoint x="160" y="380"/>
                            <mxPoint x="270" y="380"/>
                        </Array>
                    </mxGeometry>
                </mxCell>
                <mxCell id="34_DfmtK1x9xla_BCLYV-21" value="5" style="edgeLabel;html=1;align=center;verticalAlign=middle;resizable=0;points=[];" parent="34_DfmtK1x9xla_BCLYV-18" vertex="1" connectable="0">
                    <mxGeometry x="-0.317" y="3" relative="1" as="geometry">
                        <mxPoint x="-7" y="-10.34" as="offset"/>
                    </mxGeometry>
                </mxCell>
                <mxCell id="34_DfmtK1x9xla_BCLYV-17" value="&lt;ul&gt;&lt;li&gt;Check registered topics&lt;/li&gt;&lt;li&gt;Redirect to driver&lt;/li&gt;&lt;/ul&gt;" style="whiteSpace=wrap;html=1;align=left;" parent="1" vertex="1">
                    <mxGeometry x="240" y="500" width="175" height="40" as="geometry"/>
                </mxCell>
            </root>
        </mxGraphModel>
    </diagram>
</mxfile>